# xmcd
#
# Track frame offsets: 
#        150
#        15515
#        28050
#        39535
#        49547
#        61107
#        82827
#        95478
#        107865
#        121605
#        133273
#        145354
#        158268
#        176728
#        194173
#        208589
#        220419
#        234812
#
# Disc length: 3178 seconds
#
# Revision: 0
# Processed by: cddbd v1.5.2PL0 Copyright (c) Steve Scherf et al.
# Submitted via: ExactAudioCopy v0.95b3
#
DISCID=f00c6812
DTITLE=старинская наталия - как хороша любовь
DYEAR=1900
DGENRE=
TTITLE0=вечерний звон
TTITLE1=не грусти
TTITLE2=почему я безумно люблю
TTITLE3=мне снился сон
TTITLE4=только ночью цветы оживают
TTITLE5=лотос
TTITLE6=ножка
TTITLE7=ах, милый мой
TTITLE8=зачем я влюбился
TTITLE9=спускалась ночная прохлада
TTITLE10=мираж
TTITLE11=полутемное окошко
TTITLE12=и с тех пор живу на свете я
TTITLE13=твои зеленые глаза
TTITLE14=и буду тебя я ласкать
TTITLE15=как хороша любовь
TTITLE16=пожалей
TTITLE17=живи
EXTD=
EXTT0=
EXTT1=
EXTT2=
EXTT3=
EXTT4=
EXTT5=
EXTT6=
EXTT7=
EXTT8=
EXTT9=
EXTT10=
EXTT11=
EXTT12=
EXTT13=
EXTT14=
EXTT15=
EXTT16=
EXTT17=
PLAYORDER=
